<?xml version="1.0" encoding="utf-8"?>
<!-- Generator: Adobe Illustrator 15.1.0, SVG Export Plug-In  -->
<!DOCTYPE svg PUBLIC "-//W3C//DTD SVG 1.1//EN" "http://www.w3.org/Graphics/SVG/1.1/DTD/svg11.dtd" [
	<!ENTITY ns_flows "http://ns.adobe.com/Flows/1.0/">
]>
<svg version="1.1"
	 xmlns="http://www.w3.org/2000/svg" xmlns:xlink="http://www.w3.org/1999/xlink" xmlns:a="http://ns.adobe.com/AdobeSVGViewerExtensions/3.0/"
	 x="0px" y="0px" width="350px" height="210px" viewBox="0 0 350 210" overflow="visible" enable-background="new 0 0 350 210"
	 xml:space="preserve">
<defs>
</defs>
<path fill-rule="evenodd" clip-rule="evenodd" fill="#588E89" d="M0.507,0c116.389,0,232.781,0,349.167,0
	c0.591,22.974,0.085,47.045,0.254,70.441c-13.848,4.616-23.312,16.405-23.312,34.461c0,18.008,9.326,29.985,23.312,34.46
	c-0.169,23.396,0.337,47.468-0.254,70.442c-116.554,0-233.122,0-349.674,0c0-23.312,0-46.624,0-69.936
	c2.784-2.022,5.977-2.543,8.615-4.308c7.343-4.91,12.48-13.5,14.19-24.325C25.923,91.491,15.356,75.221,0,70.188
	C0,47.045,0,23.902,0,0.76C-0.011,0.326,0.188,0.104,0.507,0z M211.832,6.081c0,5.683,9.821,3.32,6.335-2.027
	c-0.548-0.84-1.962-1.449-3.801-1.014C211.961,3.611,211.832,4.864,211.832,6.081z M217.407,20.524
	c3.044-2.076,0.284-7.925-3.548-5.828C209.457,16.743,213.362,23.282,217.407,20.524z M218.167,31.166
	c1.812-2.769-0.6-6.138-4.054-5.067C208.3,27.899,215.077,35.887,218.167,31.166z M51.438,44.089
	c-3.876,5.128-4.814,11.45-4.814,20.018c0,25.09,0,50.018,0,74.496c0,9.236-0.327,16.632,2.28,22.552
	c2.529,5.741,6.739,9.848,12.669,12.162c5.846,2.282,14.435,1.521,23.312,1.521c57.67-0.001,115.889,0.001,173.824,0
	c8.278,0,17.044,0.85,24.579-0.253c9.395-1.376,16.155-7.527,18.75-16.217c2.492-8.346,1.014-22.133,1.014-33.954
	c0-11.315,0-23.352,0-34.968c0-12.033,1.221-24.864-0.253-34.967c-1.591-10.896-10.863-17.971-19.765-19.258
	c-8.609-1.245-17.932-0.254-26.605-0.254c-53.106,0-108.079,0-161.154,0c-8.864,0-19.49-0.543-27.366,0.254
	C60.43,35.978,54.998,39.38,51.438,44.089z M216.646,184.466c3.91-1.456,1.729-7.042-2.026-6.335
	C209.643,179.067,212.396,186.049,216.646,184.466z M218.167,194.854c1.802-2.801-0.671-6.095-4.054-5.067
	C208.294,191.553,215.076,199.659,218.167,194.854z M218.167,206.257c1.827-2.841-0.62-5.832-3.801-5.067
	C208.144,202.686,215.01,211.163,218.167,206.257z"/>
<path fill-rule="evenodd" clip-rule="evenodd" fill="#588E89" d="M209.805,46.623c0,38.853,0,77.706,0,116.559
	c-33.864,0-64.593-0.001-98.061,0c-10.562,0-21.827,1.063-32.687,0c-10.261-1.006-17.318-8.468-19.764-16.978
	c-1.506-5.238-1.014-12.876-1.014-20.271c0-14.801,0-27.037,0-42.062c0-7.158-0.538-14.472,1.014-20.018
	c2.571-9.193,9.88-16.361,20.524-17.23c10.685-0.873,21.822,0,32.687,0C144.731,46.623,177.132,46.623,209.805,46.623z"/>
<path fill-rule="evenodd" clip-rule="evenodd" fill="#588E89" d="M221.967,46.623c8.342,0,16.838,0,25.339,0
	c8.456,0,17.401-0.99,24.832,0.253c9.496,1.59,17.379,8.937,19.004,18.751c0.958,5.789,0.254,12.68,0.253,19.258
	c0,13.305,0.001,25.728,0,39.021c0,6.451,0.737,13.379,0,19.511c-1.241,10.335-10.02,18.714-20.777,19.765
	c-14.653,1.43-32.3-1.066-48.903,0c-0.592-38.093-0.085-77.284-0.254-115.799C221.45,46.949,221.649,46.727,221.967,46.623z"/>
</svg>
