<?xml version="1.0" encoding="utf-8"?>
<!-- Generator: Adobe Illustrator 15.1.0, SVG Export Plug-In  -->
<!DOCTYPE svg PUBLIC "-//W3C//DTD SVG 1.1//EN" "http://www.w3.org/Graphics/SVG/1.1/DTD/svg11.dtd" [
	<!ENTITY ns_flows "http://ns.adobe.com/Flows/1.0/">
]>
<svg version="1.1"
	 xmlns="http://www.w3.org/2000/svg" xmlns:xlink="http://www.w3.org/1999/xlink" xmlns:a="http://ns.adobe.com/AdobeSVGViewerExtensions/3.0/"
	 x="0px" y="0px" width="364px" height="375px" viewBox="0 0 364 375" overflow="visible" enable-background="new 0 0 364 375"
	 xml:space="preserve">
<defs>
</defs>
<path fill-rule="evenodd" clip-rule="evenodd" fill="#7E7E7E" d="M222.959,0c16.178,15.37,31.696,31.398,47.449,47.193
	c-2.156,3.855-3.826,8.88-3.571,14.796c0.759,17.621,15.972,33.227,32.652,34.694c6.161,0.542,12.354-0.638,16.582-3.316
	c8.561,7.254,16.071,15.562,23.979,23.47c7.865,7.865,15.811,15.651,23.725,23.469c-1.647,2.204-3.534,4.044-5.612,6.123
	c-1.43,1.43-4.32,5.117-6.123,5.612c-3.461,0.949-9.109,0-13.265,0c-12.464,0-27.029-0.001-39.031,0
	c0.806-7.028-0.668-11.485-3.061-15.307c-4.17-6.66-11.421-12.186-17.092-17.857c-14.575-14.575-28.026-29.113-43.367-43.367
	c-3.103-2.882-5.839-6.432-8.929-8.418c-6.581-4.231-17.744-4.073-24.235,0.255c-3.884,2.59-7.208,6.698-10.969,10.459
	c-23.101,23.102-46.266,46.011-69.388,69.133c-1.779,1.779-3.812,3.558-5.357,5.103c-2.936,0-7.656,0-11.479,0
	c-11.208,0-23.706-0.001-34.438,0c-0.217-1.081,2.697-3.208,4.081-4.593C124.25,98.709,173.914,48.673,222.959,0z M136.989,96.429
	c4.151-0.329,4.016-7.9-1.02-6.633C131.905,90.818,132.992,96.744,136.989,96.429z M144.388,104.337
	c4.574,0.571,5.609-7.168,0.51-6.633C140.624,98.152,141.06,103.921,144.388,104.337z M149.745,109.184
	c0.236,4.196,7.327,4.15,6.887-0.766c-0.188-2.101-1.886-2.988-3.57-2.806C150.474,105.893,149.647,107.469,149.745,109.184z"/>
<path fill-rule="evenodd" clip-rule="evenodd" fill="#7E7E7E" d="M283.929,152.041c-23.047,0-46.576-0.001-70.153,0
	c-3.391,0-7.386,0.617-9.949,0c-2.811-0.678-6.772-6.008-9.184-8.419c-9.178-9.177-17.014-17.384-26.275-26.275
	c0-0.17,0-0.34,0-0.51c5.396-5.307,11.474-11.219,17.602-17.348c8.031-8.03,13.88-17.67,26.531-19.897
	c4.605-0.812,11.054,0.764,15.051,3.316c4.736,3.024,9.428,8.917,13.775,13.265c8.946,8.947,17.754,17.755,27.041,27.041
	C276.172,131.019,285.871,137.308,283.929,152.041z"/>
<path fill-rule="evenodd" clip-rule="evenodd" fill="#7E7E7E" d="M186.989,152.041c-17.602,0-35.811,0-53.412,0
	c1.167-1.354,19.466-19.554,26.938-27.396C160.772,125.079,183.129,147.467,186.989,152.041z"/>
<path fill-rule="evenodd" clip-rule="evenodd" fill="#7E7E7E" d="M0.511,163.775c117.176,0,234.355,0,351.529,0
	c0.596,23.129,0.086,47.364,0.256,70.918c-13.951,4.659-23.47,16.512-23.47,34.694c0,18.098,9.357,29.991,23.214,34.693
	c0.596,23.045,0.086,47.193,0.256,70.663c-116.837,0.426-235.461,0.426-352.296,0c0-23.384,0-46.769,0-70.152
	c2.747-2.01,6.032-2.571,8.673-4.337c7.18-4.801,12.928-14.03,14.541-24.49C26.274,255.938,15.327,239.28,0,234.693
	c0-23.384,0-46.769,0-70.152C-0.011,164.104,0.189,163.88,0.511,163.775z M213.265,169.897c0,5.722,9.888,3.343,6.378-2.041
	c-0.552-0.846-1.976-1.459-3.826-1.02C213.396,167.411,213.265,168.673,213.265,169.897z M218.877,184.438
	c3.031-2.094,0.306-7.981-3.571-5.867C210.867,180.609,214.812,187.246,218.877,184.438z M219.643,195.153
	c1.824-2.788-0.604-6.181-4.082-5.103C209.709,191.864,216.532,199.905,219.643,195.153z M48.214,215.561
	c-2.673,8.703-1.275,21.308-1.275,34.694c0,11.551,0,24.415,0,35.97c0,11.626-1.363,26.353,0.766,35.459
	c2.137,9.141,8.633,15.565,17.857,17.602c7.408,1.636,18.312,0.511,27.041,0.511c55.205-0.001,110.433,0,165.306,0
	c9.538,0,19.313,1.03,27.551-0.256c12.026-1.877,19.643-11.216,19.643-24.744c0-27.881,0-61.312,0-89.286
	c0-7.479-1.17-12.561-4.847-17.347c-3.404-4.431-7.749-7.467-13.775-8.674c-7.961-1.593-17.694-0.51-26.786-0.51
	c-54.269,0-109.798,0-163.775,0c-9.073,0-19.53-0.557-27.551,0.255C57.843,200.3,50.944,206.67,48.214,215.561z M218.112,349.489
	c3.936-1.466,1.74-7.089-2.041-6.377C211.062,344.055,213.832,351.084,218.112,349.489z M219.643,359.948
	c1.813-2.819-0.676-6.136-4.082-5.102C209.703,356.624,216.531,364.786,219.643,359.948z M213.265,369.388
	c0,5.655,9.849,3.376,6.378-2.041c-0.56-0.873-1.902-1.483-3.826-1.021C213.397,366.907,213.265,368.163,213.265,369.388z"/>
<path fill-rule="evenodd" clip-rule="evenodd" fill="#7E7E7E" d="M211.225,210.714c0,39.115,0,78.232,0,117.347
	c-34.094,0-65.03,0-98.725,0c-10.634,0-21.976,1.071-32.908,0c-10.331-1.012-17.436-8.523-19.897-17.092
	c-1.517-5.273-1.021-12.962-1.021-20.408c0-14.9,0-27.22,0-42.347c0-7.206-0.541-14.569,1.021-20.153
	c2.588-9.255,9.946-16.471,20.662-17.347c10.758-0.879,21.971,0,32.908,0C145.71,210.714,178.33,210.714,211.225,210.714z"/>
<path fill-rule="evenodd" clip-rule="evenodd" fill="#7E7E7E" d="M223.469,210.714c8.398,0,16.952,0,25.511,0
	c8.514,0,17.519-0.997,25,0.255c9.561,1.601,17.496,8.997,19.133,18.878c0.965,5.828,0.255,12.765,0.255,19.388
	c0,13.395,0,25.902,0,39.286c0,6.494,0.741,13.47,0,19.643c-1.251,10.404-10.089,18.841-20.919,19.897
	c-14.752,1.44-32.518-1.073-49.234,0c-0.595-38.35-0.085-77.807-0.255-116.581C222.947,211.043,223.148,210.818,223.469,210.714z"/>
</svg>
