<?xml version="1.0" encoding="utf-8"?>
<!-- Generator: Adobe Illustrator 15.1.0, SVG Export Plug-In  -->
<!DOCTYPE svg PUBLIC "-//W3C//DTD SVG 1.1//EN" "http://www.w3.org/Graphics/SVG/1.1/DTD/svg11.dtd" [
	<!ENTITY ns_flows "http://ns.adobe.com/Flows/1.0/">
]>
<svg version="1.1"
	 xmlns="http://www.w3.org/2000/svg" xmlns:xlink="http://www.w3.org/1999/xlink" xmlns:a="http://ns.adobe.com/AdobeSVGViewerExtensions/3.0/"
	 x="0px" y="0px" width="350px" height="210px" viewBox="0 0 350 210" overflow="visible" enable-background="new 0 0 350 210"
	 xml:space="preserve">
<defs>
</defs>
<path fill-rule="evenodd" clip-rule="evenodd" fill="#588E89" d="M108.197,85.138c23.902,0,47.806,0,71.708,0
	c0,5.067,0,10.136,0,15.203c-23.311,0.591-47.721,0.085-71.455,0.254c10.832,11.804,23.755,23.712,35.221,35.728
	c-3.189,3.99-7.031,7.327-10.643,10.896c-18.476-17.843-36.635-36.002-54.478-54.479c18.307-17.927,36.171-36.298,54.478-54.225
	c1.989,1.909,5.566,5.312,8.362,8.108c0.417,0.417,2.53,2.435,2.534,2.534c0.031,0.726-3.505,3.505-4.561,4.561
	C129.221,63.859,117.663,75.58,108.197,85.138z"/>
<path fill-rule="evenodd" clip-rule="evenodd" fill="#588E89" d="M272.645,116.305c-18.435,17.885-36.086,36.551-54.731,54.225
	c-2.544-2.635-4.833-5.086-7.855-8.108c-0.386-0.386-2.768-2.086-2.787-2.534c-0.031-0.731,3.445-3.445,4.561-4.561
	c10.135-10.135,21.707-21.869,31.167-31.42c-23.902,0-47.806,0-71.708,0c0-5.152,0-10.305,0-15.457c23.734,0,47.468,0,71.202,0
	c-2.285-3.306-5.401-6.161-8.361-9.122c-8.689-8.688-17.991-17.621-26.606-26.605c3.189-3.99,7.031-7.327,10.643-10.896
	C236.643,79.669,254.802,97.828,272.645,116.305z"/>
<path fill-rule="evenodd" clip-rule="evenodd" fill="#588E89" d="M349.928,139.362c-13.985-4.475-23.312-16.452-23.312-34.46
	c0-18.056,9.464-29.845,23.312-34.461c-0.169-23.396,0.337-47.468-0.254-70.441C233.288,0,116.896,0,0.507,0
	C0.188,0.104-0.011,0.326,0,0.76c0,23.143,0,46.285,0,69.428c15.356,5.033,25.922,21.304,22.805,41.049
	c-1.709,10.825-6.847,19.415-14.19,24.325c-2.638,1.765-5.831,2.285-8.615,4.308c0,23.312,0,46.623,0,69.936
	c116.552,0,233.12,0,349.674,0C350.265,186.83,349.759,162.759,349.928,139.362z M214.366,3.04c1.839-0.436,3.253,0.174,3.801,1.014
	c3.486,5.348-6.335,7.71-6.335,2.027C211.832,4.864,211.961,3.611,214.366,3.04z M214.113,26.099
	c3.455-1.07,5.866,2.299,4.054,5.067C215.077,35.887,208.3,27.899,214.113,26.099z M213.859,14.696
	c3.832-2.097,6.592,3.752,3.548,5.828C213.362,23.282,209.457,16.743,213.859,14.696z M214.113,189.787
	c3.383-1.027,5.855,2.267,4.054,5.067C215.076,199.659,208.294,191.553,214.113,189.787z M214.62,178.131
	c3.755-0.707,5.937,4.879,2.026,6.335C212.396,186.049,209.643,179.067,214.62,178.131z M218.167,206.257
	c-3.155,4.906-10.022-3.571-3.801-5.067C217.546,200.425,219.994,203.416,218.167,206.257z M302.038,158.367
	c-2.595,8.689-9.355,14.841-18.75,16.217c-7.535,1.103-16.301,0.253-24.579,0.253c-57.935,0.001-116.153-0.001-173.824,0
	c-8.876,0-17.466,0.762-23.312-1.521c-5.93-2.314-10.14-6.421-12.669-12.162c-2.607-5.92-2.28-13.315-2.28-22.552
	c0-24.479,0-49.406,0-74.496c0-8.567,0.938-14.89,4.814-20.018c3.56-4.709,8.992-8.111,16.47-8.868
	c7.875-0.797,18.502-0.254,27.366-0.254c53.075,0,108.048,0,161.154,0c8.674,0,17.996-0.991,26.605,0.254
	c8.901,1.287,18.174,8.361,19.765,19.258c1.474,10.103,0.253,22.934,0.253,34.967c0,11.616,0,23.652,0,34.968
	C303.051,136.234,304.53,150.021,302.038,158.367z"/>
</svg>
