<?xml version="1.0" encoding="utf-8"?>
<!-- Generator: Adobe Illustrator 16.0.0, SVG Export Plug-In . SVG Version: 6.00 Build 0)  -->
<!DOCTYPE svg PUBLIC "-//W3C//DTD SVG 1.1//EN" "http://www.w3.org/Graphics/SVG/1.1/DTD/svg11.dtd">
<svg version="1.1" id="Lager_1" xmlns="http://www.w3.org/2000/svg" xmlns:xlink="http://www.w3.org/1999/xlink" x="0px" y="0px"
	 width="595.281px" height="598px" viewBox="0 0 595.281 598" enable-background="new 0 0 595.281 598" xml:space="preserve">
<image overflow="visible" enable-background="new    " width="2000" height="2500" xlink:href="636B681C.png"  transform="matrix(0.2681 0 0 0.2681 29.4922 -1507.999)">
</image>
<image overflow="visible" enable-background="new    " width="2000" height="2500" xlink:href="636B681D.png"  transform="matrix(0.2681 0 0 0.2681 -774.7246 -1507.999)">
</image>
<image overflow="visible" enable-background="new    " width="2000" height="2500" xlink:href="636B681B.png"  transform="matrix(0.2921 0 0 0.2921 -774.7246 -801.1724)">
</image>
<image overflow="visible" enable-background="new    " width="2000" height="2500" xlink:href="636B6824.png"  transform="matrix(0.2921 0 0 0.2921 5.5029 -801.1724)">
</image>
<image overflow="visible" enable-background="new    " width="2000" height="2500" xlink:href="636B6827.png"  transform="matrix(0.3408 0 0 0.3408 -41.561 -107.5)">
</image>
<image overflow="visible" enable-background="new    " width="2000" height="2500" xlink:href="636B6825.png"  transform="matrix(0.2592 0 0 0.2592 -737.7866 -25)">
</image>
<image overflow="visible" enable-background="new    " width="2000" height="2500" xlink:href="636B682B.png"  transform="matrix(0.2592 0 0 0.2592 38.439 703)">
</image>
<image overflow="visible" enable-background="new    " width="2000" height="2500" xlink:href="636B682C.png"  transform="matrix(0.2592 0 0 0.2592 -741.7876 703)">
</image>
</svg>
