<?xml version="1.0" encoding="utf-8"?>
<!-- Generator: Adobe Illustrator 16.0.0, SVG Export Plug-In . SVG Version: 6.00 Build 0)  -->
<!DOCTYPE svg PUBLIC "-//W3C//DTD SVG 1.1//EN" "http://www.w3.org/Graphics/SVG/1.1/DTD/svg11.dtd">
<svg version="1.1" id="Layer_1" xmlns="http://www.w3.org/2000/svg" xmlns:xlink="http://www.w3.org/1999/xlink" x="0px" y="0px"
	 width="792px" height="792px" viewBox="0 0 792 792" enable-background="new 0 0 792 792" xml:space="preserve">
<g>
	<path fill="#FFFFFF" d="M544.146,113.614c-20.665-10.757-42.436-19.742-65.313-26.182c-4.208-32.435-17.271-85.46-17.271-85.46
		c-9.666,56.088-23.764,122.213-42.436,193.947C454.7,166.066,496.841,138.595,544.146,113.614z"/>
	<path fill="#FFFFFF" d="M690.787,259.848c13.357-17.97,60.959-61.42,60.959-61.42c-367.083,113.209-398.078,397.101-50.775,516.805
		c0,0-36.678-47.232-49.299-78.266c48.782-59.409,78.083-135.424,78.083-218.338C729.755,361.324,715.585,307.394,690.787,259.848z"
		/>
	<path fill="#FFFFFF" d="M233.669,109.85C119.684,165.974,41.05,282.966,41.05,418.63c0,48.007,10.166,93.542,27.95,135.017
		C144.739,410.105,198.706,249,233.669,109.85z"/>
	<path fill="#FFFFFF" d="M281.565,586.894c-32.841,71.218-70.405,140.517-112.768,204.391l78.82-57.196
		c42.213,18.45,88.761,28.857,137.783,28.857c11.404,0,22.64-0.665,33.746-1.735C350.55,709.624,304.591,650.03,281.565,586.894z"/>
</g>
<g>
</g>
<g>
</g>
<g>
</g>
<g>
</g>
<g>
</g>
<g>
</g>
</svg>
