<?xml version="1.0" encoding="utf-8"?>
<!-- Generator: Adobe Illustrator 16.0.0, SVG Export Plug-In . SVG Version: 6.00 Build 0)  -->
<!DOCTYPE svg PUBLIC "-//W3C//DTD SVG 1.1//EN" "http://www.w3.org/Graphics/SVG/1.1/DTD/svg11.dtd">
<svg version="1.1" id="Lager_1" xmlns="http://www.w3.org/2000/svg" xmlns:xlink="http://www.w3.org/1999/xlink" x="0px" y="0px"
	 width="37.484px" height="29.865px" viewBox="0 0 37.484 29.865" enable-background="new 0 0 37.484 29.865" xml:space="preserve">
<g>
	<path fill="#FFFFFF" d="M23.045,3.431c-0.548-0.285-1.124-0.522-1.729-0.693c-0.11-0.858-0.456-2.262-0.456-2.262
		C20.604,1.96,20.23,3.71,19.736,5.609C20.677,4.819,21.793,4.092,23.045,3.431z"/>
	<path fill="#FFFFFF" d="M26.926,7.301c0.354-0.476,1.613-1.625,1.613-1.625c-9.715,2.996-10.536,10.509-1.344,13.677
		c0,0-0.972-1.25-1.306-2.071c1.291-1.572,2.067-3.584,2.067-5.778C27.957,9.986,27.581,8.559,26.926,7.301z"/>
	<path fill="#FFFFFF" d="M14.828,3.331C11.811,4.816,9.73,7.913,9.73,11.503c0,1.271,0.269,2.476,0.74,3.573
		C12.474,11.277,13.902,7.014,14.828,3.331z"/>
	<path fill="#FFFFFF" d="M16.095,15.956c-0.869,1.885-1.863,3.719-2.984,5.409l2.086-1.514c1.117,0.488,2.349,0.764,3.646,0.764
		c0.302,0,0.599-0.018,0.893-0.046C17.921,19.204,16.705,17.627,16.095,15.956z"/>
</g>
<g>
	<path fill="#FFFFFF" d="M2.771,24.357H1.88l-0.711,4.037H0.28l0.712-4.037H0l0.129-0.752h2.874L2.771,24.357z"/>
	<path fill="#FFFFFF" d="M5.034,28.395H4.385l-0.069-0.459c0,0-0.287,0.527-0.882,0.527c-0.404,0-0.896-0.213-0.896-1.203
		c0-1.063,0.417-2.561,1.648-2.561c0.472,0,0.685,0.26,0.685,0.26l0.252-0.191H5.67L5.034,28.395z M4.269,25.41
		c-0.636,0-0.842,1.303-0.842,1.918c0,0.307,0.103,0.443,0.247,0.443c0.355,0,0.711-0.725,0.711-0.725l0.26-1.52
		C4.645,25.527,4.48,25.41,4.269,25.41z M4.433,24.557c-0.514,0-0.828-0.275-0.828-0.727c0-0.6,0.423-0.943,1.053-0.943
		c0.5,0,0.829,0.287,0.829,0.732C5.487,24.24,4.994,24.557,4.433,24.557z M4.604,23.373c-0.24,0-0.363,0.191-0.363,0.416
		c0,0.158,0.075,0.281,0.24,0.281c0.252,0,0.369-0.205,0.369-0.432C4.849,23.475,4.782,23.373,4.604,23.373z"/>
	<path fill="#FFFFFF" d="M8.452,28.051c-0.096,0.535-0.185,0.971-0.424,1.268c-0.246,0.301-0.588,0.443-1.225,0.443
		c-0.506,0-1.143-0.252-1.143-0.252l0.13-0.727c0,0,0.637,0.246,1.068,0.246c0.526,0,0.689-0.336,0.78-0.916l0.047-0.314
		c0,0-0.335,0.527-0.869,0.527c-0.396,0-0.964-0.172-0.964-1.238c0-1.033,0.432-2.389,1.642-2.389C7.986,24.699,8.206,25,8.206,25
		l0.239-0.232h0.582L8.452,28.051z M7.548,25.41c-0.622,0-0.806,1.186-0.806,1.629c0,0.527,0.123,0.604,0.308,0.604
		c0.349,0,0.705-0.686,0.705-0.686L8,25.563C8,25.563,7.774,25.41,7.548,25.41z"/>
	<path fill="#FFFFFF" d="M10.032,28.395h-0.89l0.869-4.926h0.89L10.032,28.395z M11.298,26.396l0.547,1.998l-0.965,0.068
		l-0.473-2.121l0.896-1.574h1.04L11.298,26.396z"/>
	<path fill="#FFFFFF" d="M14.65,28.004c-0.287,0.314-0.711,0.459-1.218,0.459c-0.664,0-1.184-0.328-1.184-1.32
		c0-0.713,0.24-1.561,0.705-2.033c0.288-0.293,0.637-0.41,1.142-0.41c0.609,0,1.185,0.336,1.185,1.232
		C15.28,26.732,15.066,27.545,14.65,28.004z M14.007,25.322c-0.691,0-0.869,1.342-0.869,1.826c0,0.494,0.15,0.686,0.383,0.686
		c0.691,0,0.891-1.416,0.891-1.902C14.412,25.494,14.308,25.322,14.007,25.322z"/>
	<path fill="#FFFFFF" d="M19.665,28.395h-0.89l0.439-2.504c0.04-0.246,0.054-0.426-0.084-0.426c-0.361,0-0.758,0.773-0.758,0.773
		l-0.384,2.156H17.1l0.437-2.504c0.041-0.246,0.056-0.426-0.082-0.426c-0.362,0-0.76,0.773-0.76,0.773l-0.383,2.156h-0.89
		l0.637-3.627h0.698l0.048,0.65c0,0,0.409-0.719,1.047-0.719c0.444,0,0.636,0.287,0.636,0.705c0.062-0.096,0.452-0.705,1.04-0.705
		c0.548,0,0.712,0.438,0.608,1.012L19.665,28.395z"/>
	<path fill="#FFFFFF" d="M23.086,27.799c-0.391,0.623-0.924,0.664-1.238,0.664c-0.309,0-0.527-0.117-0.527-0.117l-0.24,1.348h-0.889
		l0.87-4.926h0.648l0.076,0.514c0,0,0.336-0.582,0.932-0.582c0.465,0,0.848,0.24,0.848,1.184
		C23.564,26.527,23.381,27.328,23.086,27.799z M22.455,25.391c-0.355,0-0.746,0.76-0.746,0.76l-0.271,1.566
		c0,0,0.217,0.09,0.375,0.09c0.172,0,0.369-0.096,0.541-0.453c0.164-0.342,0.326-1.074,0.326-1.455
		C22.68,25.52,22.605,25.391,22.455,25.391z"/>
	<path fill="#FFFFFF" d="M26.389,28.395H25.74l-0.07-0.459c0,0-0.285,0.527-0.881,0.527c-0.402,0-0.896-0.213-0.896-1.203
		c0-1.063,0.418-2.561,1.648-2.561c0.473,0,0.686,0.26,0.686,0.26l0.252-0.191h0.547L26.389,28.395z M25.623,25.41
		c-0.635,0-0.842,1.303-0.842,1.918c0,0.307,0.104,0.443,0.248,0.443c0.355,0,0.711-0.725,0.711-0.725l0.26-1.52
		C26,25.527,25.836,25.41,25.623,25.41z"/>
	<path fill="#FFFFFF" d="M29.879,28.395H28.99l0.438-2.504c0.041-0.246,0.047-0.426-0.131-0.426c-0.41,0-0.883,0.773-0.883,0.773
		l-0.383,2.156h-0.889l0.637-3.627h0.697l0.047,0.65c0,0,0.432-0.719,1.17-0.719c0.568,0,0.76,0.438,0.656,1.012L29.879,28.395z"/>
	<path fill="#FFFFFF" d="M31.506,28.395h-0.889l0.637-3.627h0.889L31.506,28.395z M31.836,24.254c-0.289,0-0.506-0.23-0.506-0.512
		s0.217-0.512,0.506-0.512c0.287,0,0.506,0.23,0.506,0.512S32.123,24.254,31.836,24.254z"/>
	<path fill="#FFFFFF" d="M33.188,27.08v0.063c0,0.52,0.186,0.609,0.506,0.609c0.355,0,0.938-0.232,0.938-0.232L34.5,28.277
		c0,0-0.438,0.186-0.936,0.186c-0.486,0-1.246-0.104-1.246-1.287c0-1.408,0.574-2.477,1.684-2.477c0.664,0,1.086,0.314,1.086,1.039
		C35.088,26.684,34.201,27.039,33.188,27.08z M33.934,25.301c-0.357,0-0.617,0.514-0.705,1.164c0.621-0.035,1.006-0.191,1.006-0.779
		C34.234,25.41,34.133,25.301,33.934,25.301z"/>
	<path fill="#FFFFFF" d="M37.273,25.391h-0.582l-0.361,2.066c-0.035,0.193,0.008,0.301,0.205,0.301c0.129,0,0.521-0.115,0.521-0.115
		l-0.125,0.689c0,0-0.355,0.131-0.738,0.131c-0.588,0-0.871-0.316-0.752-0.979l0.361-2.094h-0.48l0.111-0.623h0.479l0.246-0.82
		l0.844-0.273l-0.199,1.094h0.682L37.273,25.391z"/>
</g>
</svg>
